<?xml version="1.0" encoding="utf-8"?>
<!-- Generator: Adobe Illustrator 22.0.1, SVG Export Plug-In . SVG Version: 6.00 Build 0)  -->
<svg version="1.1" id="Layer_1" xmlns="http://www.w3.org/2000/svg" xmlns:xlink="http://www.w3.org/1999/xlink" x="0px" y="0px"
	 viewBox="0 0 378.7 41.7" style="enable-background:new 0 0 378.7 41.7;" xml:space="preserve">
<g>
	<g>
		<path d="M18.8,32.6c0-2.7-1.3-4-4.5-5.3l-2.2-1c-6.1-2.8-9.6-5.8-9.6-11.5c0-6.2,5-9.9,12.8-9.9c3.7,0,7.2,1,9.7,2.6l-0.4,7.2H20
			l-1.3-7.8l4.2,1.5v2.6c-2.7-2-4.7-3.1-7.4-3.1c-2.9,0-5.3,1.9-5.3,4.7c0,2.7,1.6,4.2,4.7,5.5l2.4,1.1c6.6,3,9.3,5.8,9.3,11
			c0,6.1-4.7,10.4-13.5,10.4C9.3,40.6,5,39.7,2,37.9l0.3-7.7h4.8l1.3,8.4l-4-1.3v-2.5c3.3,1.8,5.4,2.7,8.7,2.7
			C16.9,37.5,18.8,35.4,18.8,32.6z"/>
		<path d="M39.7,25.3c2.1-0.6,5.8-1.6,8.2-2.2v2.2c-2.4,0.6-5.2,1.4-6.7,2.1c-2.3,1-3.9,2.7-3.9,5.1c0,2.6,1.4,3.8,3.1,3.8
			c1,0,1.8-0.4,3.4-1.6l2.1-1.6l0.5,0.7l-2.2,2.4c-2.5,2.6-4.1,4.2-7.8,4.2c-4,0-6.8-2.4-6.8-6.6C29.8,30.2,31.8,27.6,39.7,25.3z
			 M43.7,35.4V22.5c0-4.6-0.9-5.9-4.2-5.9c-1.3,0-2.6,0.2-4.8,0.7l3.6-2l-0.4,3.6c-0.1,3.4-1.8,4.8-3.8,4.8c-1.8,0-3.1-0.9-3.5-2.6
			c0.3-4.3,4.4-7.2,11.8-7.2c6.6,0,9.2,2.8,9.2,9.7v11.6c0,1,0.4,1.5,1.2,1.5c0.5,0,1-0.3,1.6-1.1l1.4,0.9c-1.2,2.8-3.1,3.9-6.2,3.9
			C46,40.4,44.1,38.5,43.7,35.4z"/>
		<path d="M59.8,39.6c0.1-2.3,0.2-7.6,0.2-10.8v-2.5c0-2.8-0.1-4.4-0.2-6.5l-3.2-0.5v-2l10.8-3.4l0.9,0.6L68.1,22v6.8
			c0,3.2,0.1,8.5,0.2,10.8H59.8z M70.8,37.2v2.4H57.1v-2.4l4.8-1h3.9L70.8,37.2z M59.6,6c0-2.4,1.9-4.1,4.4-4.1s4.4,1.7,4.4,4.1
			c0,2.4-1.9,4.1-4.4,4.1S59.6,8.4,59.6,6z"/>
		<path d="M76,39.6c0.1-2.3,0.2-7.6,0.2-10.8v-3c0-2.8-0.1-3.9-0.2-6l-3.2-0.5v-2L83,13.9l0.9,0.6l0.5,5.7v8.6
			c0,3.2,0.1,8.5,0.2,10.8H76z M86.9,37.2v2.4H73.3v-2.4l4.8-1H82L86.9,37.2z M99.9,22.8v6c0,3.3,0.1,8.5,0.2,10.8h-8.5
			c0.1-2.3,0.2-7.5,0.2-10.8v-5.4c0-3.3-0.8-4.5-2.9-4.5c-1.8,0-4.3,1.4-6.4,3.8h-1.8v-3.3h3.5l-2,1.4c3.6-5.2,6.5-6.9,10.2-6.9
			C97,13.9,99.9,16.8,99.9,22.8z M97.5,36.2l5,1v2.4H89v-2.4l4.7-1H97.5z"/>
		<path d="M118.1,36.2c0.9,0,1.8-0.4,2.8-1.1l1.3,1.2c-1.4,2.6-3.8,4.1-7.5,4.1c-4.7,0-7.4-2.1-7.4-7.2c0-1.8,0.1-3.2,0.1-5.2v-9.8
			H104v-3.1l6.1-0.8l-3,2.1l3.3-9h5.3l-0.1,9.3v15.9C115.5,35.1,116.6,36.2,118.1,36.2z M120.9,14.7v3.5h-9.5v-3.5H120.9z"/>
		<path d="M133.8,36.9l6-0.8h1.5l5.1,0.8v2.8h-12.6V36.9z M134.3,5.8h7.4l0.1,3.5h-0.8l-6.6-0.8V5.8z M138.8,5.8h2.9l0.4,17.9v16
			h-3.3V5.8z M139.1,5.8h8.8l9.3,25.1h-1.7l8.8-25.1h3.4l-11.9,33.9h-4L139.1,5.8z M161,36.9l6.6-0.8h2.4l7.5,0.8v2.8H161V36.9z
			 M164.8,24.7l0.2-19h8.6c-0.2,5.3-0.2,10.6-0.2,16v1.9c0,5.4,0,10.7,0.2,16h-8.9C164.8,34.4,164.8,29,164.8,24.7z M169.1,5.8h8.1
			v2.8l-7.3,0.8h-0.8V5.8z"/>
		<path d="M189.6,25.3c2.1-0.6,5.8-1.6,8.2-2.2v2.2c-2.4,0.6-5.2,1.4-6.7,2.1c-2.3,1-3.9,2.7-3.9,5.1c0,2.6,1.4,3.8,3.1,3.8
			c1,0,1.8-0.4,3.4-1.6l2.1-1.6l0.5,0.7l-2.2,2.4c-2.5,2.6-4.1,4.2-7.8,4.2c-4,0-6.8-2.4-6.8-6.6C179.6,30.2,181.6,27.6,189.6,25.3z
			 M193.5,35.4V22.5c0-4.6-0.9-5.9-4.2-5.9c-1.3,0-2.6,0.2-4.8,0.7l3.6-2l-0.4,3.6c-0.1,3.4-1.8,4.8-3.8,4.8c-1.8,0-3.1-0.9-3.5-2.6
			c0.3-4.3,4.4-7.2,11.8-7.2c6.6,0,9.2,2.8,9.2,9.7v11.6c0,1,0.4,1.5,1.2,1.5c0.5,0,1-0.3,1.6-1.1l1.4,0.9c-1.2,2.8-3.1,3.9-6.2,3.9
			C195.9,40.4,194,38.5,193.5,35.4z"/>
		<path d="M208.7,17.9L204,17v-2.3h14.6V17l-4.7,0.9H208.7z M214.3,14.7l6.7,18.3l-3.5,5.6l8.1-23.9h3.6l-9.6,25h-3.9l-10.4-25
			H214.3z M225.8,17.8l-4.3-0.8v-2.3h9.7V17l-4.2,0.8H225.8z"/>
		<path d="M255.6,24.8c0,1.1-0.1,1.9-0.3,2.8h-20.2v-2.7h9.7c2.5,0,3.1-0.9,3.1-3.2c0-3.4-1.6-5.1-3.5-5.1c-2.1,0-4.1,2.3-4.1,9.8
			c0,6.3,3.1,9.1,7,9.1c2.8,0,4.7-1.2,6.3-2.8l1.8,1.7c-2.1,4-5.8,6-10.8,6c-7.5,0-12.8-4.9-12.8-13.2c0-8.6,6.6-13.3,13.3-13.3
			C251.7,13.9,255.6,18.6,255.6,24.8z"/>
		<path d="M261.4,28.8v-3c0-2.8-0.1-3.9-0.2-5.9l-3.2-0.5v-2l10.2-3.4l0.9,0.6l0.5,6.3v8c0,3.2,0.1,8.5,0.2,10.8h-8.5
			C261.3,37.3,261.4,32,261.4,28.8z M258.5,37.2l4.9-1h5.4l4.9,1v2.4h-15.3V37.2z M265.8,22h3.9l-0.7,1.4c0.9-6.3,4.5-9.5,7.6-9.5
			c2.2,0,4,1.2,4.5,3.8c-0.1,2.7-1.6,4.2-3.7,4.2c-1.6,0-2.8-0.8-4-2.4l-1.5-2l2.1,0.7c-1.9,1.4-3.7,4.1-4.4,7.2l-3.8-0.4V22z"/>
		<path d="M285.3,39.6c0.1-2.3,0.2-7.6,0.2-10.8v-2.5c0-2.8-0.1-4.4-0.2-6.5l-3.2-0.5v-2l10.8-3.4l0.9,0.6l-0.2,7.5v6.8
			c0,3.2,0.1,8.5,0.2,10.8H285.3z M296.3,37.2v2.4h-13.7v-2.4l4.8-1h3.9L296.3,37.2z M285.1,6c0-2.4,1.9-4.1,4.4-4.1
			c2.4,0,4.4,1.7,4.4,4.1c0,2.4-1.9,4.1-4.4,4.1C287,10.1,285.1,8.4,285.1,6z"/>
		<path d="M307.4,26.3c0,5.9,2.9,9.2,7.2,9.2c2.5,0,4.3-1.1,5.8-2.9l1.8,1.6c-2,4.2-5.7,6.2-10.6,6.2c-7,0-12.8-4.5-12.8-13.2
			c0-8.4,6.2-13.3,13.9-13.3c5.4,0,9.3,3.4,9.6,7.5c-0.6,1.8-1.6,2.7-3.5,2.7c-2,0-3.7-1.3-4-4.9l-0.5-3.7l3.7,2.1
			c-1.6-0.7-2.9-1.1-4.6-1.1C310.7,16.6,307.4,19.3,307.4,26.3z"/>
		<path d="M334.5,2.2l0.8,0.5l-0.2,7.2v18.5c0,3.4,0.1,9,0.2,11.2h-8.5c0.1-2.2,0.2-7.8,0.2-10.8V7.2l-3.2-0.5V4.5L334.5,2.2z
			 M337.9,37.2v2.4h-14v-2.4l4.8-1h3.9L337.9,37.2z M350.5,14.7l-19.7,18.4v-3.2l15.6-15.2H350.5z M346.4,35.5l6.9,1.7v2.4h-10.5
			l-6.3-13.5l5.8-5.2l9,17.8L346.4,35.5z M345.1,17.9l-5.1-0.9v-2.3h12V17l-5.7,0.8L345.1,17.9z"/>
	</g>
	<g>
		<path d="M360.8,24.2v-2.8h15.6v2.8H360.8z M367.1,14.9h3v16h-3V14.9z"/>
	</g>
</g>
</svg>
